<?xml version="1.0" encoding="UTF-8" standalone="no"?>
<!-- Created with Inkscape (http://www.inkscape.org/) -->

<svg
   width="35mm"
   height="50.006405mm"
   viewBox="0 0 35 50.006408"
   version="1.1"
   id="svg1"
   inkscape:version="1.4.2 (ebf0e940, 2025-05-08)"
   sodipodi:docname="palm.svg"
   xmlns:inkscape="http://www.inkscape.org/namespaces/inkscape"
   xmlns:sodipodi="http://sodipodi.sourceforge.net/DTD/sodipodi-0.dtd"
   xmlns="http://www.w3.org/2000/svg"
   xmlns:svg="http://www.w3.org/2000/svg">
  <sodipodi:namedview
     id="namedview1"
     pagecolor="#ffffff"
     bordercolor="#000000"
     borderopacity="0.25"
     inkscape:showpageshadow="2"
     inkscape:pageopacity="0.0"
     inkscape:pagecheckerboard="0"
     inkscape:deskcolor="#d1d1d1"
     inkscape:document-units="mm"
     inkscape:zoom="2.0059908"
     inkscape:cx="140.82816"
     inkscape:cy="96.710314"
     inkscape:window-width="1512"
     inkscape:window-height="862"
     inkscape:window-x="0"
     inkscape:window-y="1019"
     inkscape:window-maximized="0"
     inkscape:current-layer="g120" />
  <defs
     id="defs1">
    <clipPath
       clipPathUnits="userSpaceOnUse"
       id="clipPath60">
      <path
         d="M 0,841.89 H 595.276 V 0 H 0 Z"
         transform="translate(-306.20861,-320.31941)"
         id="path60" />
    </clipPath>
    <clipPath
       clipPathUnits="userSpaceOnUse"
       id="clipPath62">
      <path
         d="M 0,841.89 H 595.276 V 0 H 0 Z"
         transform="translate(-288.8701,-300.29821)"
         id="path62" />
    </clipPath>
    <clipPath
       clipPathUnits="userSpaceOnUse"
       id="clipPath64">
      <path
         d="M 0,841.89 H 595.276 V 0 H 0 Z"
         transform="translate(-289.2235,-282.10311)"
         id="path64" />
    </clipPath>
    <clipPath
       clipPathUnits="userSpaceOnUse"
       id="clipPath66">
      <path
         d="M 0,841.89 H 595.276 V 0 H 0 Z"
         transform="translate(-289.8505,-294.13761)"
         id="path66" />
    </clipPath>
    <clipPath
       clipPathUnits="userSpaceOnUse"
       id="clipPath68">
      <path
         d="M 0,841.89 H 595.276 V 0 H 0 Z"
         transform="translate(-289.43961,-270.32911)"
         id="path68" />
    </clipPath>
    <clipPath
       clipPathUnits="userSpaceOnUse"
       id="clipPath70">
      <path
         d="M 0,841.89 H 595.276 V 0 H 0 Z"
         transform="translate(-289.94101,-288.571)"
         id="path70" />
    </clipPath>
    <clipPath
       clipPathUnits="userSpaceOnUse"
       id="clipPath72">
      <path
         d="M 0,841.89 H 595.276 V 0 H 0 Z"
         transform="translate(-289.07691,-276.95221)"
         id="path72" />
    </clipPath>
    <clipPath
       clipPathUnits="userSpaceOnUse"
       id="clipPath74">
      <path
         d="M 0,841.89 H 595.276 V 0 H 0 Z"
         transform="translate(-342.67991,-412.89781)"
         id="path74" />
    </clipPath>
    <clipPath
       clipPathUnits="userSpaceOnUse"
       id="clipPath76">
      <path
         d="M 0,841.89 H 595.276 V 0 H 0 Z"
         transform="translate(-296.7796,-392.15141)"
         id="path76" />
    </clipPath>
    <clipPath
       clipPathUnits="userSpaceOnUse"
       id="clipPath78">
      <path
         d="M 0,841.89 H 595.276 V 0 H 0 Z"
         transform="translate(-255.7981,-402.35311)"
         id="path78" />
    </clipPath>
    <clipPath
       clipPathUnits="userSpaceOnUse"
       id="clipPath80">
      <path
         d="M 0,841.89 H 595.276 V 0 H 0 Z"
         transform="translate(-327.59271,-386.99961)"
         id="path80" />
    </clipPath>
    <clipPath
       clipPathUnits="userSpaceOnUse"
       id="clipPath82">
      <path
         d="M 0,841.89 H 595.276 V 0 H 0 Z"
         transform="translate(-340.64891,-442.14281)"
         id="path82" />
    </clipPath>
    <clipPath
       clipPathUnits="userSpaceOnUse"
       id="clipPath84">
      <path
         d="M 0,841.89 H 595.276 V 0 H 0 Z"
         transform="translate(-307.12021,-346.72671)"
         id="path84" />
    </clipPath>
    <clipPath
       clipPathUnits="userSpaceOnUse"
       id="clipPath86">
      <path
         d="M 0,841.89 H 595.276 V 0 H 0 Z"
         transform="translate(-277.1461,-380.60641)"
         id="path86" />
    </clipPath>
    <clipPath
       clipPathUnits="userSpaceOnUse"
       id="clipPath88">
      <path
         d="M 0,841.89 H 595.276 V 0 H 0 Z"
         transform="translate(-311.01071,-372.59901)"
         id="path88" />
    </clipPath>
    <clipPath
       clipPathUnits="userSpaceOnUse"
       id="clipPath90">
      <path
         d="M 0,841.89 H 595.276 V 0 H 0 Z"
         transform="translate(-306.13241,-255.17181)"
         id="path90" />
    </clipPath>
    <clipPath
       clipPathUnits="userSpaceOnUse"
       id="clipPath92">
      <path
         d="M 0,841.89 H 595.276 V 0 H 0 Z"
         transform="translate(-297.16401,-253.5685)"
         id="path92" />
    </clipPath>
    <clipPath
       clipPathUnits="userSpaceOnUse"
       id="clipPath94">
      <path
         d="M 0,841.89 H 595.276 V 0 H 0 Z"
         transform="translate(-289.87771,-313.21071)"
         id="path94" />
    </clipPath>
    <clipPath
       clipPathUnits="userSpaceOnUse"
       id="clipPath96">
      <path
         d="M 0,841.89 H 595.276 V 0 H 0 Z"
         transform="translate(-289.8013,-306.77791)"
         id="path96" />
    </clipPath>
    <clipPath
       clipPathUnits="userSpaceOnUse"
       id="clipPath98">
      <path
         d="M 0,841.89 H 595.276 V 0 H 0 Z"
         transform="translate(-290.20641,-264.15681)"
         id="path98" />
    </clipPath>
    <clipPath
       clipPathUnits="userSpaceOnUse"
       id="clipPath100">
      <path
         d="M 0,841.89 H 595.276 V 0 H 0 Z"
         transform="translate(-290.10661,-258.1513)"
         id="path100" />
    </clipPath>
    <clipPath
       clipPathUnits="userSpaceOnUse"
       id="clipPath102">
      <path
         d="M 0,841.89 H 595.276 V 0 H 0 Z"
         transform="translate(-318.01271,-229.57261)"
         id="path102" />
    </clipPath>
    <clipPath
       clipPathUnits="userSpaceOnUse"
       id="clipPath104">
      <path
         d="M 0,841.89 H 595.276 V 0 H 0 Z"
         transform="translate(-278.0143,-216.56871)"
         id="path104" />
    </clipPath>
    <clipPath
       clipPathUnits="userSpaceOnUse"
       id="clipPath106">
      <path
         d="M 0,841.89 H 595.276 V 0 H 0 Z"
         transform="translate(-331.70211,-219.82221)"
         id="path106" />
    </clipPath>
    <clipPath
       clipPathUnits="userSpaceOnUse"
       id="clipPath108">
      <path
         d="M 0,841.89 H 595.276 V 0 H 0 Z"
         transform="translate(-239.5153,-217.0825)"
         id="path108" />
    </clipPath>
    <clipPath
       clipPathUnits="userSpaceOnUse"
       id="clipPath110">
      <path
         d="M 0,841.89 H 595.276 V 0 H 0 Z"
         transform="translate(-253.15791,-216.12771)"
         id="path110" />
    </clipPath>
    <clipPath
       clipPathUnits="userSpaceOnUse"
       id="clipPath112">
      <path
         d="M 0,841.89 H 595.276 V 0 H 0 Z"
         transform="translate(-351.25701,-218.66121)"
         id="path112" />
    </clipPath>
    <clipPath
       clipPathUnits="userSpaceOnUse"
       id="clipPath114">
      <path
         d="M 0,841.89 H 595.276 V 0 H 0 Z"
         transform="translate(-371.38501,-216.925)"
         id="path114" />
    </clipPath>
    <clipPath
       clipPathUnits="userSpaceOnUse"
       id="clipPath116">
      <path
         d="M 0,841.89 H 595.276 V 0 H 0 Z"
         transform="translate(-379.55581,-206.17641)"
         id="path116" />
    </clipPath>
  </defs>
  <g
     inkscape:label="Layer 1"
     inkscape:groupmode="layer"
     id="layer1"
     transform="translate(-2073.0104,1777.4708)">
    <g
       id="g120"
       transform="matrix(0.16069346,0,0,0.16069346,2025.9032,-1865.3598)"
       style="mix-blend-mode:normal">
      <g
         id="g116"
         transform="translate(1.6924309,14)">
        <path
           id="path59"
           d="m 0,0 c 0.779,-0.775 1.45,-1.952 1.643,-3.041 0.309,-1.738 0.14,-4.985 0.189,-6.93 0.02,-0.782 0.116,-1.569 0.129,-2.35 0.161,-9.5 -0.38,-19.558 -0.762,-29.081 -0.056,-1.395 -0.056,-2.779 0.011,-4.175 0.021,-0.427 0.037,-0.856 0.07,-1.282 0.413,-5.337 1.366,-9.755 0.342,-15.239 -0.197,-1.056 -0.381,-2.123 -1.282,-2.813 -0.22,0.001 -0.325,-0.022 -0.416,-0.237 -1.725,1.833 -6.624,4.42 -9.096,3.984 -1.542,-0.272 -3.355,-1.895 -4.717,-2.691 -0.308,-0.18 -0.726,-0.11 -0.825,-0.166 -0.805,0.201 -0.555,1.326 -0.781,1.63 -0.039,0.052 -0.422,0.088 -0.607,0.223 2.658,-0.289 3.852,3.459 6.336,3.781 3.078,0.399 5.633,-3.522 8.395,-2.451 1.387,0.538 0.658,2.243 -0.17,3.011 -1.191,1.106 -4.474,2.971 -6.099,2.962 -1.586,-0.009 -5.736,-2.583 -7.165,-3.589 -1.268,0.526 -1.541,0.915 -1.197,2.291 1.43,0.128 5.049,4.026 7.384,4.457 3.11,0.575 4.563,-2.037 6.552,-2.187 1.513,-0.114 1.66,1.02 0.831,2.075 -0.612,0.779 -4.356,3.805 -5.227,4.144 -3.706,1.44 -5.896,-2.239 -8.292,-4.223 -0.428,-0.355 -1.027,-0.526 -1.435,-0.847 -0.51,0.468 -0.965,0.621 -0.937,1.448 0.193,0.147 0.308,0.468 0.499,0.668 0.221,0.231 0.605,0.162 0.51,0.457 -0.25,-0.037 -0.443,0.069 -0.652,0.181 1.854,0.204 3.288,2.081 4.832,3.086 3.405,2.217 4.633,2.288 7.963,-0.035 0.819,-0.571 1,-1.371 2.194,-1.153 1.051,0.192 1.389,1.087 0.758,1.953 -0.462,0.636 -5.173,3.924 -5.967,4.224 -1.656,0.627 -3.379,-0.244 -4.886,-0.981 -1.411,-0.689 -3.841,-2.353 -4.879,-3.451 -0.895,0.856 -0.393,1.546 -0.127,2.456 0.129,0.44 0.374,0.166 -0.251,0.524 1.395,-0.12 4.024,2.201 5.485,2.909 0.781,0.378 1.913,0.951 2.772,0.99 2.422,0.112 6.066,-3.992 7.852,-3.413 2.212,0.717 -1.027,3.248 -1.766,3.838 -5.471,4.375 -7.121,2.539 -12.257,-0.605 -0.383,-0.234 -0.915,-0.287 -1.193,-0.456 -0.984,0.154 -1.019,1.056 -0.746,1.888 0.085,0.045 0.838,0.899 1.293,1.178 2.46,1.508 5.832,3.871 8.764,3.126 2.103,-0.534 5.004,-4.552 6.861,-3.934 0.932,0.31 0.968,1.173 0.504,1.95 -0.929,1.555 -7.583,5.383 -9.438,5.565 -2.131,0.209 -5.616,-2.107 -7.375,-3.352 -0.785,0.751 -0.475,1.213 0.108,1.935 0.86,0.209 2.906,1.776 3.954,2.248 1.343,0.605 3.36,1.315 4.82,0.851 1.335,-0.424 4.374,-3.269 5.579,-2.871 0.936,0.31 1.023,1.45 0.531,2.206 -0.386,0.593 -4.065,2.768 -4.896,3.152 -0.745,0.344 -2.202,0.979 -2.979,1.003 -1.804,0.057 -5.694,-2.08 -7.196,-3.171 -0.783,0.773 -0.549,1.391 0.097,2.148 0.989,0.22 3.55,2.006 4.796,2.509 2.149,0.869 2.764,0.93 4.922,0.057 1.627,-0.659 4.226,-2.802 5.977,-2.099 0.981,0.394 0.373,2.016 -0.234,2.612 -0.835,0.82 -6.309,3.834 -7.43,3.953 -0.436,0.046 -0.776,0.03 -1.209,-0.036 -1.415,-0.216 -4.93,-2.047 -6.189,-2.89 -1.468,0.172 -0.57,1.745 -0.745,1.887 -0.035,0.028 -0.524,0.05 -0.869,0.168 0.45,-0.007 0.84,0.004 1.263,0.187 1.79,0.775 3.717,2.389 5.677,3.043 1.825,0.609 2.568,0.771 4.279,-0.124 1.209,-0.633 4.106,-3.283 5.042,-3.458 1.339,-0.251 2.609,0.968 1.826,2.279 -0.827,1.386 -6.277,5.032 -7.918,5.222 -2.532,0.292 -6.489,-1.89 -8.669,-3.21 -0.58,0.339 -1.224,0.077 -1.127,1.01 0.057,0.057 0.349,1.271 0.559,1.53 2.214,-0.814 5.517,3.146 7.852,3.224 0.997,0.033 2.627,-0.614 3.534,-1.064 1.199,-0.595 4.16,-3.287 5.222,-2.934 1.567,0.519 -0.378,2.922 -1.003,3.56 -0.915,0.936 -4.991,4.007 -6.121,4.28 -0.706,0.17 -1.666,0.042 -2.371,-0.13 -1.147,-0.279 -4.597,-2.074 -5.626,-2.783 -2.289,-0.31 -2.203,0.535 -1.411,2.28 0.258,0.017 0.381,0.054 0.614,0.152 1.653,0.693 3.807,2.424 5.485,3.222 3.358,1.598 6.381,-2.501 9.253,-2.916 2.281,-0.329 1.904,1.795 0.739,3.096 -0.947,1.058 -6.335,4.273 -7.645,4.397 -2.313,0.219 -6.207,-3.102 -8.202,-4.412 -0.378,-0.248 -0.968,-0.306 -1.06,-0.369 -2.488,0.565 -0.072,2.106 0.839,2.911 0.094,0.083 0.032,0.334 0.054,0.352 1.079,0.93 4.495,3.357 5.795,3.849 C -7.196,4.408 -2.372,2.358 0,0"
           style="fill:#f57b14;fill-opacity:1;fill-rule:nonzero;stroke:none"
           transform="matrix(1.3333333,0,0,-1.3333333,408.27813,695.42747)"
           clip-path="url(#clipPath60)" />
        <path
           id="path61"
           d="m 0,0 c -0.281,0.096 -0.684,0.014 -0.891,0.307 -1.161,1.636 1.273,2.956 2.39,3.632 2.18,1.32 6.137,3.502 8.669,3.21 C 11.81,6.959 17.259,3.313 18.087,1.927 18.87,0.617 17.6,-0.603 16.26,-0.352 15.325,-0.177 12.428,2.473 11.218,3.106 9.508,4.002 8.764,3.84 6.939,3.23 4.98,2.576 3.053,0.962 1.263,0.188 0.839,0.004 0.449,-0.006 0,0"
           style="fill:#284291;fill-opacity:1;fill-rule:nonzero;stroke:none"
           transform="matrix(1.3333333,0,0,-1.3333333,385.16013,722.1224)"
           clip-path="url(#clipPath62)" />
        <path
           id="path63"
           d="m 0,0 c -0.815,-0.438 -2.474,-0.267 -2.376,0.992 0.118,1.517 1.882,2.76 2.985,3.541 C 2.368,5.778 5.853,8.094 7.984,7.885 9.839,7.703 16.494,3.876 17.422,2.32 17.886,1.543 17.85,0.681 16.918,0.37 15.061,-0.248 12.16,3.77 10.057,4.304 7.125,5.049 3.753,2.687 1.293,1.178 0.838,0.9 0.085,0.046 0,0"
           style="fill:#284291;fill-opacity:1;fill-rule:nonzero;stroke:none"
           transform="matrix(1.3333333,0,0,-1.3333333,385.63133,746.38253)"
           clip-path="url(#clipPath64)" />
        <path
           id="path65"
           d="m 0,0 c -0.875,-0.195 -2.067,0.21 -1.963,1.238 0.073,0.72 1.971,2.45 2.596,2.868 1.26,0.842 4.774,2.674 6.189,2.89 0.433,0.066 0.773,0.082 1.209,0.035 1.121,-0.118 6.595,-3.132 7.43,-3.953 0.607,-0.595 1.215,-2.217 0.234,-2.611 -1.751,-0.703 -4.35,1.44 -5.977,2.099 C 7.56,3.439 6.946,3.378 4.796,2.509 3.55,2.006 0.989,0.22 0,0"
           style="fill:#284291;fill-opacity:1;fill-rule:nonzero;stroke:none"
           transform="matrix(1.3333333,0,0,-1.3333333,386.46733,730.33653)"
           clip-path="url(#clipPath66)" />
        <path
           id="path67"
           d="M 0,0 C -0.792,0.424 -1.376,0.752 -1.174,1.864 -1.14,2.049 -0.191,3.426 0.015,3.644 1.053,4.741 3.483,6.405 4.894,7.095 6.401,7.831 8.124,8.702 9.78,8.076 10.574,7.775 15.285,4.487 15.747,3.852 16.378,2.985 16.04,2.091 14.989,1.898 13.795,1.68 13.614,2.481 12.795,3.051 9.465,5.374 8.237,5.304 4.832,3.087 3.288,2.081 1.854,0.204 0,0"
           style="fill:#284291;fill-opacity:1;fill-rule:nonzero;stroke:none"
           transform="matrix(1.3333333,0,0,-1.3333333,385.91947,762.0812)"
           clip-path="url(#clipPath68)" />
        <path
           id="path69"
           d="M 0,0 C -0.845,-0.206 -1.895,0.135 -2.007,1.067 -2.16,2.334 -1.031,2.806 -0.187,3.418 1.315,4.509 5.204,6.646 7.009,6.59 7.786,6.565 9.242,5.931 9.987,5.587 10.819,5.202 14.497,3.027 14.883,2.434 15.375,1.678 15.289,0.539 14.353,0.229 13.147,-0.17 10.108,2.675 8.774,3.1 7.314,3.564 5.297,2.854 3.954,2.248 2.906,1.776 0.86,0.21 0,0"
           style="fill:#284291;fill-opacity:1;fill-rule:nonzero;stroke:none"
           transform="matrix(1.3333333,0,0,-1.3333333,386.588,737.75867)"
           clip-path="url(#clipPath70)" />
        <path
           id="path71"
           d="m 0,0 c -1.093,0.093 -1.509,1.324 -0.816,2.108 0.166,0.187 1.38,0.955 1.709,1.155 0.278,0.169 0.81,0.222 1.192,0.456 5.137,3.144 6.787,4.98 12.258,0.605 0.738,-0.59 3.978,-3.121 1.766,-3.838 C 14.323,-0.092 10.678,4.011 8.257,3.899 7.397,3.86 6.265,3.287 5.484,2.909 4.024,2.201 1.395,-0.119 0,0"
           style="fill:#284291;fill-opacity:1;fill-rule:nonzero;stroke:none"
           transform="matrix(1.3333333,0,0,-1.3333333,385.43587,753.2504)"
           clip-path="url(#clipPath72)" />
        <path
           id="path73"
           d="m 0,0 c 6.783,1.022 13.659,-1.423 19.489,-4.651 6.641,-3.678 14.837,-9.686 13.054,-18.408 -2.264,-11.075 -14.027,-6.004 -20.47,-2.106 -8.401,5.082 -11.287,10.147 -22.349,8.163 -3.078,-0.553 -6.108,-1.879 -8.932,-3.173 -4.073,-1.865 -10.606,-6.409 -14.984,-6.045 -2.904,0.241 -4.974,3.3 -3.235,5.91 1.01,1.514 4.609,4.128 6.215,5.2 C -23.525,-9.979 -8.979,-1.353 0,0"
           style="fill:#284291;fill-opacity:1;fill-rule:nonzero;stroke:none"
           transform="matrix(1.3333333,0,0,-1.3333333,456.90653,571.9896)"
           clip-path="url(#clipPath74)" />
        <path
           id="path75"
           d="m 0,0 c -0.14,-0.125 -0.192,-0.423 -0.388,-0.557 -1.873,-1.279 -6.148,1.231 -7.728,2.44 -7.862,6.015 -9.238,19.113 -21.527,19.287 -8.983,0.127 -25.925,-3.835 -32.841,2.812 -5.84,5.612 5.189,12.216 9.876,13.702 19.264,6.107 45.479,-4.83 52.29,-24.381 C 0.718,10.331 1.928,5.105 1.476,2.032 1.337,1.09 0.636,0.57 0,0"
           style="fill:#284291;fill-opacity:1;fill-rule:nonzero;stroke:none"
           transform="matrix(1.3333333,0,0,-1.3333333,395.70613,599.65147)"
           clip-path="url(#clipPath76)" />
        <path
           id="path77"
           d="m 0,0 c 10.349,0.843 21.174,-3.76 29.843,-8.969 1.925,-1.157 7.603,-4.671 8.254,-6.66 0.932,-2.842 -2.743,-5.148 -5.113,-5.588 -3.569,-0.662 -15.322,4.039 -19.829,4.967 -12.106,2.495 -17.947,-2.632 -26.344,-10.129 -4.137,-3.694 -7.602,-8.847 -13.601,-4.278 -8.823,6.721 -0.913,14.937 5.148,19.977 C -16.128,-6.094 -7.248,-0.59 0,0"
           style="fill:#284291;fill-opacity:1;fill-rule:nonzero;stroke:none"
           transform="matrix(1.3333333,0,0,-1.3333333,341.06413,586.0492)"
           clip-path="url(#clipPath78)" />
        <path
           id="path79"
           d="m 0,0 c 8.569,0.902 16.932,-1.084 21.906,-8.529 3.634,-5.441 7.66,-18.604 5.298,-24.781 -3.668,-9.593 -14.554,-11.387 -18.578,-0.914 -2.022,5.259 -0.858,10.449 -2.282,15.817 -1.356,5.113 -2.825,6.682 -8.346,6.786 -6.058,0.114 -15.185,-2.179 -20.475,1.19 -2.254,1.435 -2.896,4.6 -0.551,6.274 4.037,2.88 11.638,2.704 16.381,3.204 C -4.44,-0.72 -2.201,-0.232 0,0"
           style="fill:#284291;fill-opacity:1;fill-rule:nonzero;stroke:none"
           transform="matrix(1.3333333,0,0,-1.3333333,436.79027,606.52053)"
           clip-path="url(#clipPath80)" />
        <path
           id="path81"
           d="m 0,0 c 5.835,0.398 15.947,-1.732 14.794,-9.594 -0.392,-2.674 -2.664,-4.004 -4.859,-5.196 -9.758,-5.301 -23.144,-1.913 -30.826,-12.002 -3.174,-4.169 -7.495,-14.474 -11.631,-17.008 -2.078,-1.273 -4.046,-0.244 -5.014,1.835 -2.758,5.921 2.089,15.961 5.326,21.046 C -24.39,-8.633 -15.087,-1.029 0,0"
           style="fill:#284291;fill-opacity:1;fill-rule:nonzero;stroke:none"
           transform="matrix(1.3333333,0,0,-1.3333333,454.19853,532.99627)"
           clip-path="url(#clipPath82)" />
        <path
           id="path83"
           d="m 0,0 c 0.206,-2.888 -0.386,-5.623 -0.402,-8.477 -0.021,-3.625 0.169,-7.289 0.169,-10.92 0.001,-2.16 1.05,-5.574 -0.679,-7.01 -2.372,2.358 -7.196,4.408 -10.459,3.173 -1.3,-0.492 -4.716,-2.919 -5.795,-3.849 -0.953,-0.064 -1.326,1.023 -1.545,1.79 -1.034,3.624 -0.76,7.557 -0.875,11.247 -0.186,5.976 -0.593,10.38 1.031,16.244 0.91,3.287 2.56,6.444 3.007,9.8 0.574,4.307 -0.411,9.011 0.704,13.389 0.823,3.236 4.183,9.49 8.183,6.288 C -2.708,28.511 -3.186,17.912 -2.653,13.25 -2.141,8.776 -0.319,4.471 0,0"
           style="fill:#284291;fill-opacity:1;fill-rule:nonzero;stroke:none"
           transform="matrix(1.3333333,0,0,-1.3333333,409.4936,660.21773)"
           clip-path="url(#clipPath84)" />
        <path
           id="path85"
           d="m 0,0 c 4.997,0.376 12.868,-3.444 12.548,-9.228 -0.21,-3.801 -2.912,-4.928 -6.274,-5.351 -4.53,-0.569 -11.678,2.323 -12.485,7.323 C -6.779,-3.742 -3.396,-0.255 0,0"
           style="fill:#f57b14;fill-opacity:1;fill-rule:nonzero;stroke:none"
           transform="matrix(1.3333333,0,0,-1.3333333,369.52813,615.0448)"
           clip-path="url(#clipPath86)" />
        <path
           id="path87"
           d="m 0,0 c 3.828,0.739 8.809,-0.792 11.162,-3.98 5.154,-6.984 -2.479,-9.785 -8.368,-7.975 -2.281,0.702 -7.386,3.656 -8.387,5.833 C -7.01,-3.04 -2.562,-0.494 0,0"
           style="fill:#f57b14;fill-opacity:1;fill-rule:nonzero;stroke:none"
           transform="matrix(1.3333333,0,0,-1.3333333,414.68093,625.72133)"
           clip-path="url(#clipPath88)" />
        <path
           id="path89"
           d="m 0,0 c -0.158,-0.373 -0.032,-0.999 -0.464,-1.515 -1.268,-1.51 -4.561,0.54 -5.948,1.164 -1.419,0.638 -2.012,1.181 -3.638,0.314 -0.435,-0.233 -0.621,-0.623 -0.838,-0.774 -1.16,-0.805 -2.848,-2.306 -4.262,-2.392 -1.433,-0.087 -2.818,0.629 -2.589,2.231 0.071,0.023 0.285,0.455 0.588,0.589 0.803,0.356 1.51,0.522 2.282,0.996 0.314,0.192 0.206,0.5 0.231,0.514 0.099,0.055 0.517,-0.014 0.825,0.166 1.362,0.796 3.176,2.418 4.717,2.69 C -6.624,4.42 -1.724,1.833 0,0"
           style="fill:#284291;fill-opacity:1;fill-rule:nonzero;stroke:none"
           transform="matrix(1.3333333,0,0,-1.3333333,408.17653,782.29093)"
           clip-path="url(#clipPath90)" />
        <path
           id="path91"
           d="m 0,0 c 1.279,0.321 2.161,-1.016 3.155,-1.594 1.15,-0.669 4.561,-1.506 2.971,-3.5 -1.261,-1.581 -6.373,-1.593 -8.254,-1.26 -1.076,0.19 -5.611,1.259 -3.974,3.073 0.531,0.588 2.412,0.633 3.327,1.082 C -1.731,-1.686 -1.095,-0.274 0,0"
           style="fill:#284291;fill-opacity:1;fill-rule:nonzero;stroke:none"
           transform="matrix(1.3333333,0,0,-1.3333333,396.21867,784.42867)"
           clip-path="url(#clipPath92)" />
        <path
           id="path93"
           d="m 0,0 c -1.777,-0.114 -1.534,2.675 -0.817,3.17 0.092,0.063 0.683,0.121 1.061,0.369 1.995,1.31 5.889,4.631 8.202,4.412 1.31,-0.124 6.698,-3.34 7.645,-4.397 C 17.256,2.252 17.633,0.129 15.352,0.458 12.48,0.872 9.457,4.972 6.099,3.374 4.421,2.576 2.267,0.845 0.614,0.151 0.381,0.054 0.258,0.017 0,0"
           style="fill:#284291;fill-opacity:1;fill-rule:nonzero;stroke:none"
           transform="matrix(1.3333333,0,0,-1.3333333,386.5036,704.90573)"
           clip-path="url(#clipPath94)" />
        <path
           id="path95"
           d="m 0,0 c -0.855,0.315 -0.814,1.368 -0.544,2.113 0.192,0.533 1.521,1.689 2.031,2.04 1.03,0.708 4.48,2.503 5.626,2.782 0.705,0.172 1.666,0.301 2.371,0.13 1.13,-0.273 5.207,-3.343 6.122,-4.279 0.624,-0.639 2.569,-3.041 1.003,-3.561 C 15.546,-1.127 12.585,1.565 11.386,2.16 10.479,2.61 8.849,3.256 7.852,3.223 5.518,3.146 2.214,-0.814 0,0"
           style="fill:#284291;fill-opacity:1;fill-rule:nonzero;stroke:none"
           transform="matrix(1.3333333,0,0,-1.3333333,386.40173,713.4828)"
           clip-path="url(#clipPath96)" />
        <path
           id="path97"
           d="M 0,0 C -0.806,-0.072 -1.338,0.801 -1.383,1.531 -1.432,2.325 -0.754,2.972 -0.187,3.418 0.221,3.74 0.82,3.911 1.249,4.266 3.645,6.249 5.834,9.929 9.54,8.488 10.411,8.15 14.155,5.124 14.767,4.345 15.596,3.289 15.449,2.155 13.936,2.27 11.947,2.42 10.494,5.032 7.384,4.457 5.049,4.025 1.43,0.127 0,0"
           style="fill:#284291;fill-opacity:1;fill-rule:nonzero;stroke:none"
           transform="matrix(1.3333333,0,0,-1.3333333,386.94187,770.31093)"
           clip-path="url(#clipPath98)" />
        <path
           id="path99"
           d="M 0,0 C -2.182,1.598 -0.165,2.685 1.297,3.714 2.726,4.72 6.876,7.295 8.462,7.303 10.087,7.312 13.37,5.447 14.561,4.341 15.389,3.573 16.118,1.869 14.731,1.331 11.969,0.259 9.414,4.18 6.336,3.781 3.852,3.459 2.658,-0.289 0,0"
           style="fill:#284291;fill-opacity:1;fill-rule:nonzero;stroke:none"
           transform="matrix(1.3333333,0,0,-1.3333333,386.8088,778.31827)"
           clip-path="url(#clipPath100)" />
      </g>
      <g
         id="g117"
         transform="translate(-6.6321373)"
         style="display:none">
        <path
           id="path101"
           d="M 0,0 C 2.932,-0.057 3.51,-2.097 3.257,-4.701 3.041,-6.919 -0.245,-7.66 -2.09,-8.188 -2.886,-8.415 -3.961,-8.75 -4.74,-8.911 c -1.28,-0.265 -2.89,0.022 -3.981,-0.997 -0.65,-0.608 -0.52,-1.743 0.163,-2.253 3.278,-1.627 8.597,-3.25 8.906,-7.649 0.142,-2.03 -2.024,-5.569 -3.632,-6.773 -3.681,-2.757 -15.289,-2.773 -19.684,-1.749 -2.035,0.474 -3.328,1.444 -3.177,3.725 0.186,2.796 5.739,5.653 8.267,5.713 2.102,0.05 4.536,-1.107 6.753,-1.291 0.754,-0.063 2.178,-0.293 2.426,0.636 0.15,0.565 -1.224,1.028 -1.691,1.382 -1.665,1.263 -5.773,4.795 -6.988,6.342 -2.411,3.071 0.554,5.02 2.908,6.7 C -10.126,-2.024 -5.512,0.107 0,0"
           style="fill:#284291;fill-opacity:1;fill-rule:nonzero;stroke:none"
           transform="matrix(1.3333333,0,0,-1.3333333,424.01693,816.4232)"
           clip-path="url(#clipPath102)" />
        <path
           id="path103"
           d="m 0,0 c 0.66,-0.63 0.577,-2.349 0.277,-3.165 -0.608,-1.654 -4.652,-3.67 -6.301,-4.299 -1.488,-0.569 -2.711,-0.299 -3.37,-2.091 -0.473,-1.287 -0.284,-2.068 1.245,-1.724 0.656,0.147 2.798,1.306 3.423,1.715 1.279,0.839 2.485,2.628 4.057,2.847 2.883,0.401 3.249,-1.994 2.242,-4.167 -2.05,-4.422 -12.184,-9.108 -16.311,-5.855 -2.683,2.114 -0.24,6.174 0.438,8.878 1.145,4.576 1.075,9.2 1.832,13.743 0.077,0.461 0.151,1.13 0.457,1.47 0.834,0.931 3.803,0.451 5.062,0.56 3.647,0.315 6.996,2.424 10.163,2.845 C 6.367,11.176 7.173,8.59 5.964,6.082 4.246,2.516 -2.507,2.22 -5.907,1.25 -6.85,0.981 -7.965,-0.876 -7.359,-1.816 c 0.127,-0.078 0.266,-0.082 0.41,-0.082 0.705,0 3.397,1.618 4.547,1.893 C -1.824,0.133 -0.462,0.441 0,0"
           style="fill:#284291;fill-opacity:1;fill-rule:nonzero;stroke:none"
           transform="matrix(1.3333333,0,0,-1.3333333,370.68573,833.76173)"
           clip-path="url(#clipPath104)" />
        <path
           id="path105"
           d="M 0,0 C 1.523,-0.188 6.874,0.668 7.066,2.503 7.123,3.05 6.652,3.771 6.142,3.972 5.577,4.194 3.047,4.809 2.48,4.822 2.067,4.831 1.723,4.73 1.44,4.419 1.284,4.247 -0.169,0.16 0,0 m -8.676,-7.547 c -2.123,-0.91 -2.342,2.472 -1.887,3.734 0.346,0.959 3.02,1.916 3.89,2.374 1.164,3.242 1.993,6.797 3.385,9.943 0.539,1.218 1.403,3.247 2.878,3.385 1.256,0.117 2.497,0.025 3.214,-1.138 0.301,-0.489 0.13,-1.246 0.65,-1.288 0.37,-0.029 1.342,0.579 1.845,0.733 C 7.5,10.873 10.87,11.519 12.687,9.712 17.524,4.898 10.754,-1.564 6.634,-3.984 4.038,-5.509 1.195,-5.66 -1.522,-6.749 c -1.362,-3.393 -1.862,-7.113 -3.935,-10.196 -1.027,-1.527 -1.831,-2.525 -3.868,-2.092 -2.184,0.464 -1.803,2.768 -1.488,4.396 0.472,2.441 1.528,4.698 2.137,7.094"
           style="fill:#284291;fill-opacity:1;fill-rule:nonzero;stroke:none"
           transform="matrix(1.3333333,0,0,-1.3333333,442.26947,829.42373)"
           clip-path="url(#clipPath106)" />
        <path
           id="path107"
           d="m 0,0 c -0.259,-0.293 1.489,-4.837 1.679,-5.609 0.634,-2.574 0.566,-7.209 -0.697,-9.582 -1.257,-2.361 -4.583,-5.344 -6.843,-2.291 -1.069,1.444 -1.772,7.415 -1.865,9.376 -0.097,2.058 0.195,4.287 0.327,6.348 -2.181,0.104 -4.372,-0.622 -6.186,0.961 -2.52,2.2 -0.192,4.709 2.014,5.861 4.685,1.256 9.555,3.903 14.166,5.106 3.03,0.791 5.323,0.605 5.102,-3.174 C 7.457,2.882 3.311,1.264 0,0"
           style="fill:#284291;fill-opacity:1;fill-rule:nonzero;stroke:none"
           transform="matrix(1.3333333,0,0,-1.3333333,319.35373,833.07667)"
           clip-path="url(#clipPath108)" />
        <path
           id="path109"
           d="M 0,0 2.716,0.177 C 3.111,1.957 4.044,7.509 5.935,8.118 8.433,8.923 7.575,5.158 7.543,3.941 7.515,2.876 7.584,1.806 7.54,0.741 11.008,0.222 9.42,-2.834 7.442,-4.146 7.239,-4.281 6.921,-4.294 6.756,-4.424 6.178,-4.877 6.5,-6.554 6.423,-7.303 c -0.2,-1.967 -1.141,-7.748 -2.648,-8.913 -1.948,-1.504 -3.537,0.633 -3.757,2.506 -0.299,2.552 0.687,5.297 0.958,7.824 -0.118,0.513 -2.104,0.063 -2.35,-0.687 -0.187,-0.569 0,-1.265 -0.073,-1.853 -0.259,-2.071 -1.778,-8.371 -3.812,-9.196 -1.555,-0.631 -2.978,0.215 -3.489,1.731 -0.354,1.048 -0.324,2.788 -0.225,3.909 0.082,0.933 1.193,5.104 1.09,5.459 -0.147,0.508 -1.283,0.161 -1.632,0.785 -0.685,1.223 -0.685,4.182 0.416,5.201 1.184,1.095 2.586,0.03 3.081,0.534 0.402,0.408 1.186,4.208 1.475,5.107 0.347,1.077 1.41,4.056 2.134,4.772 0.814,0.805 1.813,0.61 2.411,-0.32 C 1.246,7.618 -0.356,0.355 0,0"
           style="fill:#284291;fill-opacity:1;fill-rule:nonzero;stroke:none"
           transform="matrix(1.3333333,0,0,-1.3333333,337.54387,834.34973)"
           clip-path="url(#clipPath110)" />
        <path
           id="path111"
           d="m 0,0 c -3.236,-0.865 -5.737,-6.033 -6.185,-9.073 -0.298,-2.024 1.825,-4.662 3.857,-4.34 0.953,0.151 3.26,1.156 3.957,1.826 1.082,1.04 2.891,4.862 2.511,6.33 C 3.896,-4.311 1.887,-0.571 1.064,-0.145 0.702,0.042 0.408,0.109 0,0 M 0.158,6.741 C 1.163,6.913 2.297,6.523 3.095,5.9 4.095,5.119 4.484,3.767 5.207,2.713 7.667,-0.873 9.538,-2.036 9.202,-6.955 8.727,-13.9 2.283,-19.684 -4.705,-19.239 c -4.727,0.301 -8.408,5.352 -7.225,9.966 1.003,3.906 7.421,12.477 10.523,15.171 0.41,0.356 1.028,0.75 1.565,0.843"
           style="fill:#284291;fill-opacity:1;fill-rule:nonzero;stroke:none"
           transform="matrix(1.3333333,0,0,-1.3333333,468.34267,830.97173)"
           clip-path="url(#clipPath112)" />
        <path
           id="path113"
           d="m 0,0 c -1.212,-4.047 -1.948,-8.269 -3.677,-12.144 -0.844,-1.893 -2.103,-4.53 -4.592,-4.213 -2.103,0.268 -2.385,2.081 -2.14,3.878 0.339,2.484 1.994,7.311 2.932,9.753 0.414,1.077 1.954,3.758 1.812,4.703 -0.024,0.166 -0.09,0.351 -0.238,0.449 -0.678,0.45 -3.002,0.953 -4.013,1.406 -2.134,0.955 -6.988,3.753 -3.313,5.937 2.862,1.7 8.311,-0.025 11.446,-0.696 C 0.961,8.485 8.28,7.422 8.813,3.93 9.524,-0.724 3.073,-0.691 0,0"
           style="fill:#284291;fill-opacity:1;fill-rule:nonzero;stroke:none"
           transform="matrix(1.3333333,0,0,-1.3333333,495.18,833.28667)"
           clip-path="url(#clipPath114)" />
        <path
           id="path115"
           d="m 0,0 h 0.611 c 0.869,0 1.409,0.03 1.618,0.092 0.21,0.06 0.376,0.167 0.497,0.319 0.122,0.152 0.183,0.326 0.183,0.52 0,0.188 -0.06,0.356 -0.178,0.502 C 2.612,1.58 2.444,1.685 2.225,1.749 2.006,1.813 1.468,1.845 0.611,1.845 H 0 Z M -1.504,-3.839 V 2.917 H 0 C 1.41,2.917 2.2,2.911 2.371,2.9 2.869,2.861 3.257,2.771 3.533,2.63 3.81,2.489 4.041,2.273 4.226,1.982 4.412,1.691 4.504,1.368 4.504,1.014 4.504,0.526 4.329,0.109 3.98,-0.237 3.63,-0.583 3.14,-0.798 2.507,-0.881 c 0.225,-0.077 0.399,-0.162 0.52,-0.253 0.122,-0.092 0.289,-0.265 0.502,-0.52 0.054,-0.066 0.237,-0.34 0.547,-0.822 l 0.875,-1.363 h -1.86 l -0.62,1.097 C 2.052,-2.006 1.705,-1.541 1.432,-1.35 1.158,-1.159 0.811,-1.064 0.392,-1.064 H 0 V -3.839 Z M 1.66,4.687 C 0.699,4.687 -0.222,4.468 -1.103,4.03 -1.985,3.593 -2.679,2.964 -3.187,2.144 -3.694,1.324 -3.948,0.465 -3.948,-0.432 c 0,-0.892 0.248,-1.742 0.743,-2.551 0.496,-0.809 1.187,-1.441 2.074,-1.895 0.888,-0.454 1.818,-0.681 2.791,-0.681 0.978,0 1.91,0.227 2.794,0.681 0.884,0.454 1.576,1.086 2.074,1.895 0.499,0.809 0.748,1.659 0.748,2.551 0,0.897 -0.254,1.756 -0.761,2.576 C 6.007,2.964 5.311,3.593 4.427,4.03 3.542,4.468 2.62,4.687 1.66,4.687 M 1.65,5.933 C 2.848,5.933 3.997,5.66 5.097,5.114 6.197,4.569 7.062,3.786 7.691,2.767 8.32,1.748 8.635,0.681 8.635,-0.432 8.635,-1.54 8.326,-2.597 7.709,-3.602 7.092,-4.608 6.232,-5.392 5.129,-5.954 4.026,-6.516 2.866,-6.797 1.65,-6.797 c -1.215,0 -2.375,0.281 -3.478,0.843 -1.103,0.562 -1.963,1.346 -2.58,2.352 -0.617,1.005 -0.926,2.062 -0.926,3.17 0,1.113 0.315,2.18 0.944,3.199 0.629,1.019 1.494,1.802 2.594,2.347 1.1,0.546 2.249,0.819 3.446,0.819"
           style="fill:#284291;fill-opacity:1;fill-rule:nonzero;stroke:none"
           transform="matrix(1.3333333,0,0,-1.3333333,506.0744,847.61813)"
           clip-path="url(#clipPath116)" />
      </g>
    </g>
  </g>
</svg>
